<?xml version="1.0" encoding="UTF-8" standalone="no"?>
<!-- Created with Inkscape (http://www.inkscape.org/) -->

<svg
   width="57.584183mm"
   height="57.833668mm"
   viewBox="0 0 57.584182 57.833668"
   version="1.1"
   id="svg1"
   xml:space="preserve"
   inkscape:version="1.4.1-rc (06eac75fbf, 2025-03-29)"
   sodipodi:docname="logo.svg"
   xmlns:inkscape="http://www.inkscape.org/namespaces/inkscape"
   xmlns:sodipodi="http://sodipodi.sourceforge.net/DTD/sodipodi-0.dtd"
   xmlns="http://www.w3.org/2000/svg"
   xmlns:svg="http://www.w3.org/2000/svg"><sodipodi:namedview
     id="namedview1"
     pagecolor="#ffffff"
     bordercolor="#999999"
     borderopacity="1"
     inkscape:showpageshadow="2"
     inkscape:pageopacity="0"
     inkscape:pagecheckerboard="0"
     inkscape:deskcolor="#d1d1d1"
     inkscape:document-units="mm"
     inkscape:zoom="0.43919052"
     inkscape:cx="196.95325"
     inkscape:cy="433.75254"
     inkscape:window-width="1366"
     inkscape:window-height="673"
     inkscape:window-x="0"
     inkscape:window-y="0"
     inkscape:window-maximized="1"
     inkscape:current-layer="layer1" /><defs
     id="defs1" /><g
     inkscape:label="Layer 1"
     inkscape:groupmode="layer"
     id="layer1"
     transform="translate(-53.014199,-33.736308)"><path
       style="fill:#ad0b7d;fill-opacity:1"
       d="m 76.792379,87.804673 c -9.24499,-1.9833 -16.51527,-8.4351 -19.31934,-17.1444 -1.0487,-3.25721 -1.03737,-3.36794 0.41019,-4.00826 2.26232,-1.00073 5.81367,-3.53055 7.85222,-5.59355 3.15298,-3.19081 5.4774,-7.24167 6.52707,-11.37499 l 0.49494,-1.94897 0.59448,1.17879 c 0.84165,1.66889 2.79175,4.374 4.35515,6.0413 1.84466,1.96726 4.88398,4.29098 9.40404,7.18991 2.11005,1.35328 4.73253,3.13898 5.82774,3.96823 3.70509,2.80536 6.76525,6.67383 8.296531,10.48796 l 0.76281,1.90001 -0.97078,1.14152 c -5.657581,6.65266 -15.624671,10.00962 -24.235051,8.16245 z M 103.4107,74.403153 c -0.81777,-1.98826 -3.39816,-5.65973 -5.350041,-7.61223 -2.25893,-2.25965 -4.40882,-3.87427 -9.49686,-7.13236 -5.2447,-3.35841 -7.94204,-5.55399 -10.03131,-8.16525 -2.53007,-3.1622 -3.91156,-6.18179 -4.91501,-10.74303 l -0.48356,-2.19805 0.70475,-0.27611 c 1.58692,-0.62174 5.61432,-1.27418 7.88542,-1.27744 17.61673,-0.0253 30.023271,17.31784 24.339701,34.02461 -0.538,1.58145 -1.91075,4.60297 -2.08993,4.60009 -0.0339,-5.5e-4 -0.28735,-0.54965 -0.56316,-1.22023 z M 56.154879,62.306573 c 0,-8.18395 4.56354,-16.4676 11.62666,-21.10446 1.08619,-0.71307 2.12922,-1.29649 2.31786,-1.29649 0.70772,0 0.24431,5.88567 -0.74995,9.525 -0.65896,2.41202 -2.40822,5.7995 -4.11974,7.978 -1.54172,1.96236 -4.81922,4.63126 -7.26682,5.91744 l -1.80801,0.95008 z"
       id="path1" /></g></svg>
