<?xml version="1.0" encoding="UTF-8" standalone="no"?>
<!-- Created with Inkscape (http://www.inkscape.org/) -->

<svg
   width="58.910042mm"
   height="13.219283mm"
   viewBox="0 0 58.910043 13.219283"
   version="1.1"
   id="svg1"
   xml:space="preserve"
   inkscape:version="1.4.1-rc (06eac75fbf, 2025-03-29)"
   sodipodi:docname="logo-horizontal.svg"
   xmlns:inkscape="http://www.inkscape.org/namespaces/inkscape"
   xmlns:sodipodi="http://sodipodi.sourceforge.net/DTD/sodipodi-0.dtd"
   xmlns="http://www.w3.org/2000/svg"
   xmlns:svg="http://www.w3.org/2000/svg"><sodipodi:namedview
     id="namedview1"
     pagecolor="#ffffff"
     bordercolor="#999999"
     borderopacity="1"
     inkscape:showpageshadow="2"
     inkscape:pageopacity="0"
     inkscape:pagecheckerboard="0"
     inkscape:deskcolor="#d1d1d1"
     inkscape:document-units="mm"
     inkscape:zoom="1.2223126"
     inkscape:cx="93.674891"
     inkscape:cy="38.042641"
     inkscape:window-width="1366"
     inkscape:window-height="673"
     inkscape:window-x="0"
     inkscape:window-y="0"
     inkscape:window-maximized="1"
     inkscape:current-layer="g1" /><defs
     id="defs1" /><g
     inkscape:label="Layer 1"
     inkscape:groupmode="layer"
     id="layer1"
     transform="translate(-70.349909,-102.81909)"><g
       id="g1"
       transform="translate(0.20528341,-1.0502284)"><path
         d="m 92.284538,108.70865 q 0.535345,0 1.037818,0.25358 0.502473,0.24889 0.76545,0.64805 0.253585,0.38038 0.338113,0.88755 0.07514,0.3475 0.07514,1.10825 h -3.686368 q 0.02348,0.76545 0.361592,1.23036 0.338113,0.46021 1.047211,0.46021 0.662137,0 1.056602,-0.43673 0.225409,-0.25359 0.319329,-0.587 h 0.831194 q -0.03287,0.27706 -0.220713,0.61987 -0.183144,0.33811 -0.413249,0.55413 -0.385072,0.37568 -0.95329,0.50717 -0.30524,0.0751 -0.690313,0.0751 -0.939202,0 -1.591948,-0.68093 -0.652745,-0.68561 -0.652745,-1.91597 0,-1.21157 0.657441,-1.96763 0.657442,-0.75605 1.71874,-0.75605 z m 1.347755,2.2259 q -0.05166,-0.54943 -0.239497,-0.87815 -0.347504,-0.61048 -1.159914,-0.61048 -0.582305,0 -0.97677,0.42264 -0.394465,0.41794 -0.417945,1.06599 z m -1.427587,-2.2353 z"
         id="text1"
         style="font-size:9.61743px;line-height:1.1;font-family:Helvetica;-inkscape-font-specification:'Helvetica, Normal';letter-spacing:3.60652px;fill:#3a3b3c;stroke-width:16.7207;stroke-linecap:round;stroke-linejoin:round;fill-opacity:1"
         aria-label="e" /><path
         d="m 108.85196,108.61929 q 1.00964,0 1.57786,0.72788 0.57291,0.72788 0.57291,1.87841 0,1.19278 -0.56352,1.97702 -0.56352,0.78423 -1.57316,0.78423 -0.63396,0 -1.01904,-0.25358 -0.2301,-0.15028 -0.49777,-0.52596 v 0.64336 h -1.31019 v -6.91253 h 1.33367 v 2.46071 q 0.25358,-0.3569 0.55882,-0.54474 0.3616,-0.2348 0.92042,-0.2348 z m -0.34281,4.26398 q 0.51656,0 0.80302,-0.41795 0.28646,-0.41794 0.28646,-1.09886 0,-0.54474 -0.14088,-0.90164 -0.26768,-0.67622 -0.98617,-0.67622 -0.72788,0 -1.00025,0.66214 -0.14088,0.3522 -0.14088,0.91102 0,0.65744 0.29116,1.08948 0.29115,0.43203 0.88754,0.43203 z m 5.39942,-3.1839 q -0.46491,0 -0.72319,0.29116 -0.25358,0.29115 -0.31933,0.78893 h 2.08034 q -0.0329,-0.53065 -0.32403,-0.80302 -0.28646,-0.27707 -0.71379,-0.27707 z m 0,-1.10356 q 0.63865,0 1.15052,0.2395 0.51186,0.23949 0.84528,0.75606 0.30055,0.45551 0.38977,1.0566 0.0517,0.3522 0.0423,1.01434 h -3.50322 q 0.0282,0.77014 0.48369,1.08008 0.27706,0.19253 0.66683,0.19253 0.41325,0 0.67153,-0.2348 0.14088,-0.12679 0.24889,-0.3522 h 1.36654 q -0.0517,0.45552 -0.4743,0.92512 -0.65744,0.74666 -1.84083,0.74666 -0.97677,0 -1.72344,-0.62926 -0.74666,-0.62927 -0.74666,-2.04746 0,-1.32897 0.67152,-2.03807 0.67623,-0.7091 1.75162,-0.7091 z m 0.0939,0 z m 4.53065,5.25484 h -1.33836 v -6.92192 h 1.33836 z m 2.60059,0 h -1.33836 v -6.92192 h 1.33836 z m 3.25334,-4.15128 q -0.46491,0 -0.72319,0.29116 -0.25358,0.29115 -0.31932,0.78893 h 2.08033 q -0.0329,-0.53065 -0.32403,-0.80302 -0.28645,-0.27707 -0.71379,-0.27707 z m 0,-1.10356 q 0.63866,0 1.15052,0.2395 0.51187,0.23949 0.84528,0.75606 0.30055,0.45551 0.38977,1.0566 0.0517,0.3522 0.0423,1.01434 h -3.50323 q 0.0282,0.77014 0.48369,1.08008 0.27707,0.19253 0.66684,0.19253 0.41324,0 0.67153,-0.2348 0.14088,-0.12679 0.24888,-0.3522 h 1.36654 q -0.0517,0.45552 -0.47429,0.92512 -0.65745,0.74666 -1.84084,0.74666 -0.97677,0 -1.72344,-0.62926 -0.74666,-0.62927 -0.74666,-2.04746 0,-1.32897 0.67153,-2.03807 0.67622,-0.7091 1.75161,-0.7091 z m 0.0939,0 z"
         id="text1-7"
         style="font-weight:bold;font-size:9.61743px;line-height:1.1;font-family:Helvetica;-inkscape-font-specification:'Helvetica, Bold';letter-spacing:-0.0714375px;fill:#3a3b3c;stroke-width:16.7207;stroke-linecap:round;stroke-linejoin:round;fill-opacity:1"
         aria-label="belle" /><path
         id="path1"
         style="fill:#ad0b7d;stroke-width:3.17846;stroke-linecap:round;stroke-linejoin:round"
         d="m 101.93,111.07173 a 1.6524987,1.6524987 0 0 1 -1.6525,1.6525 1.6524987,1.6524987 0 0 1 -1.652502,-1.6525 1.6524987,1.6524987 0 0 1 1.652502,-1.6525 1.6524987,1.6524987 0 0 1 1.6525,1.6525 z" /></g><path
       style="fill:#ad0b7d;fill-opacity:1;stroke-width:0.215213"
       d="m 77.315569,114.84165 c -1.98964,-0.42683 -3.554297,-1.81534 -4.157769,-3.68969 -0.225694,-0.701 -0.223255,-0.72483 0.08828,-0.86263 0.48688,-0.21537 1.251176,-0.75982 1.689898,-1.2038 0.678562,-0.68671 1.178807,-1.5585 1.40471,-2.44805 l 0.106517,-0.41944 0.12794,0.25369 c 0.181133,0.35917 0.60082,0.94134 0.937284,1.30016 0.396994,0.42338 1.051095,0.92348 2.02387,1.54737 0.454109,0.29124 1.018501,0.67554 1.254204,0.85401 0.797383,0.60375 1.455969,1.43629 1.78552,2.25714 l 0.164166,0.40891 -0.208924,0.24567 c -1.217584,1.43174 -3.362629,2.1542 -5.215694,1.75666 z m 5.728604,-2.88418 c -0.175995,-0.4279 -0.731328,-1.21804 -1.151397,-1.63825 -0.486151,-0.4863 -0.948835,-0.83379 -2.043846,-1.53497 -1.128727,-0.72277 -1.709229,-1.19529 -2.158867,-1.75727 -0.544503,-0.68054 -0.841818,-1.3304 -1.057773,-2.31203 l -0.104068,-0.47305 0.151671,-0.0594 c 0.341526,-0.1338 1.208274,-0.27422 1.697044,-0.27492 3.791346,-0.005 6.461392,3.72702 5.238215,7.32253 -0.115784,0.34035 -0.411218,0.99062 -0.44978,0.99 -0.0073,-1.2e-4 -0.06184,-0.11829 -0.121199,-0.26261 z m -10.170058,-2.60334 c 0,-1.76129 0.982132,-3.54403 2.502206,-4.54194 0.233762,-0.15347 0.458236,-0.27903 0.498833,-0.27903 0.152311,0 0.05258,1.26668 -0.161398,2.04991 -0.141817,0.51909 -0.51828,1.24812 -0.886621,1.71696 -0.331798,0.42233 -1.037158,0.99671 -1.563913,1.27351 l -0.389107,0.20447 z"
       id="path1-3" /></g></svg>
