<?xml version="1.0" encoding="UTF-8" standalone="no"?>
<!-- Created with Inkscape (http://www.inkscape.org/) -->

<svg
   width="11.1125mm"
   height="11.1125mm"
   viewBox="0 0 11.112501 11.1125"
   version="1.1"
   id="svg1"
   xml:space="preserve"
   inkscape:version="1.4.1-rc (06eac75fbf, 2025-03-29)"
   sodipodi:docname="logo-icon.svg"
   xmlns:inkscape="http://www.inkscape.org/namespaces/inkscape"
   xmlns:sodipodi="http://sodipodi.sourceforge.net/DTD/sodipodi-0.dtd"
   xmlns="http://www.w3.org/2000/svg"
   xmlns:svg="http://www.w3.org/2000/svg"><sodipodi:namedview
     id="namedview1"
     pagecolor="#ffffff"
     bordercolor="#999999"
     borderopacity="1"
     inkscape:showpageshadow="2"
     inkscape:pageopacity="0"
     inkscape:pagecheckerboard="0"
     inkscape:deskcolor="#d1d1d1"
     inkscape:document-units="mm"
     inkscape:zoom="1.2223126"
     inkscape:cx="92.85677"
     inkscape:cy="38.042641"
     inkscape:window-width="1366"
     inkscape:window-height="673"
     inkscape:window-x="0"
     inkscape:window-y="0"
     inkscape:window-maximized="1"
     inkscape:current-layer="layer1" /><defs
     id="defs1" /><g
     inkscape:label="Layer 1"
     inkscape:groupmode="layer"
     id="layer1"
     transform="translate(-70.349909,-102.81909)"><g
       id="g1"
       transform="translate(0.20528341,-1.0502284)" /><path
       style="fill:#ad0b7d;fill-opacity:1;stroke-width:0.216606"
       d="m 74.820115,113.8233 c -2.00252,-0.42959 -3.577306,-1.82709 -4.184685,-3.71357 -0.227155,-0.70554 -0.2247,-0.72952 0.08885,-0.86822 0.490032,-0.21676 1.259276,-0.76474 1.700838,-1.21159 0.682954,-0.69116 1.186438,-1.56859 1.413803,-2.4639 l 0.107207,-0.42215 0.128768,0.25533 c 0.182306,0.36149 0.60471,0.94743 0.943352,1.30858 0.399564,0.42612 1.057899,0.92945 2.036971,1.55738 0.457049,0.29313 1.025095,0.67992 1.262324,0.85954 0.802545,0.60766 1.465394,1.44559 1.797079,2.27175 l 0.165228,0.41156 -0.210276,0.24726 c -1.225466,1.44101 -3.384398,2.16815 -5.249459,1.76803 z m 5.765689,-2.90285 c -0.177134,-0.43067 -0.736062,-1.22592 -1.158851,-1.64885 -0.489298,-0.48945 -0.954977,-0.83919 -2.057077,-1.54491 -1.136034,-0.72745 -1.720294,-1.20303 -2.172842,-1.76865 -0.548028,-0.68494 -0.847268,-1.33901 -1.064621,-2.32699 l -0.104742,-0.47612 0.152653,-0.0598 c 0.343737,-0.13467 1.216096,-0.276 1.70803,-0.2767 3.81589,-0.005 6.503221,3.75115 5.272125,7.36993 -0.116533,0.34256 -0.41388,0.99704 -0.452691,0.99641 -0.0073,-1.2e-4 -0.06224,-0.11905 -0.121984,-0.26431 z m -10.235895,-2.62019 c 0,-1.77269 0.98849,-3.56697 2.518404,-4.57134 0.235276,-0.15447 0.461203,-0.28084 0.502063,-0.28084 0.153297,0 0.05292,1.27488 -0.162443,2.06318 -0.142735,0.52245 -0.521635,1.2562 -0.892361,1.72808 -0.333946,0.42506 -1.043872,1.00316 -1.574037,1.28175 l -0.391626,0.20579 z"
       id="path1-3" /></g></svg>
